<?xml version="1.0" encoding="UTF-8"?>
<svg version="1.1" xmlns="http://www.w3.org/2000/svg" width="128" height="128">
<path d="M0 0 C0.73997726 -0.0033284 1.47995453 -0.0066568 2.24235535 -0.01008606 C3.81008279 -0.01515273 5.37782102 -0.01749447 6.94555664 -0.01733398 C9.33563228 -0.01951316 11.72524088 -0.03765089 14.11523438 -0.05664062 C15.63932134 -0.05957613 17.1634105 -0.06155987 18.6875 -0.0625 C19.75494194 -0.07327827 19.75494194 -0.07327827 20.84394836 -0.08427429 C23.99969451 -0.06986643 26.40439466 0.11164851 29.34643555 1.30737305 C30.0712915 1.59136963 30.79614746 1.87536621 31.54296875 2.16796875 C32.53296875 1.50796875 33.52296875 0.84796875 34.54296875 0.16796875 C35.86296875 0.16796875 37.18296875 0.16796875 38.54296875 0.16796875 C41.54296875 6.04296875 41.54296875 6.04296875 41.54296875 7.16796875 C44.51296875 7.66296875 44.51296875 7.66296875 47.54296875 8.16796875 C47.21296875 8.82796875 46.88296875 9.48796875 46.54296875 10.16796875 C47.14109375 10.43609375 47.73921875 10.70421875 48.35546875 10.98046875 C50.52821967 12.15996211 51.8491524 13.39716075 53.54296875 15.16796875 C54.53296875 15.66296875 54.53296875 15.66296875 55.54296875 16.16796875 C55.54296875 16.82796875 55.54296875 17.48796875 55.54296875 18.16796875 C56.20296875 18.49796875 56.86296875 18.82796875 57.54296875 19.16796875 C58.45832531 20.32464659 59.32950163 21.51689793 60.16796875 22.73046875 C60.61398438 23.37113281 61.06 24.01179688 61.51953125 24.671875 C61.85726562 25.16558594 62.195 25.65929687 62.54296875 26.16796875 C62.35734375 25.40484375 62.17171875 24.64171875 61.98046875 23.85546875 C61.54296875 21.16796875 61.54296875 21.16796875 62.54296875 18.16796875 C63.20296875 18.16796875 63.86296875 18.16796875 64.54296875 18.16796875 C64.71170353 19.60522746 64.87787612 21.04278713 65.04296875 22.48046875 C65.13578125 23.28097656 65.22859375 24.08148437 65.32421875 24.90625 C65.55919523 27.33573892 65.54296875 29.72923538 65.54296875 32.16796875 C67.52296875 32.49796875 69.50296875 32.82796875 71.54296875 33.16796875 C71.87296875 34.15796875 72.20296875 35.14796875 72.54296875 36.16796875 C71.54296875 38.16796875 71.54296875 38.16796875 70.54296875 39.16796875 C71.44064531 42.29952745 71.44064531 42.29952745 73.54296875 45.16796875 C73.71519223 48.14187936 73.77491076 51.01999793 73.73828125 53.9921875 C73.73545135 54.85358841 73.73262146 55.71498932 73.72970581 56.60249329 C73.71851112 59.35362644 73.69340796 62.104434 73.66796875 64.85546875 C73.65793802 66.72069842 73.64881234 68.5859332 73.640625 70.45117188 C73.61857413 75.02356295 73.58404924 79.59571064 73.54296875 84.16796875 C72.55296875 84.66296875 72.55296875 84.66296875 71.54296875 85.16796875 C70.74172251 87.11467221 70.74172251 87.11467221 70.10546875 89.41796875 C68.97656716 93.0224312 67.65079647 96.00622717 65.54296875 99.16796875 C65.21296875 99.82796875 64.88296875 100.48796875 64.54296875 101.16796875 C62.87630208 102.83463542 61.20963542 104.50130208 59.54296875 106.16796875 C58.90359375 106.99296875 58.26421875 107.81796875 57.60546875 108.66796875 C55.14229645 111.65363214 52.62417502 113.82357267 49.54296875 116.16796875 C48.88296875 116.16796875 48.22296875 116.16796875 47.54296875 116.16796875 C47.87296875 117.15796875 48.20296875 118.14796875 48.54296875 119.16796875 C45.56055328 119.94118757 42.567164 120.57993078 39.54296875 121.16796875 C39.54296875 121.82796875 39.54296875 122.48796875 39.54296875 123.16796875 C40.20296875 123.16796875 40.86296875 123.16796875 41.54296875 123.16796875 C41.54296875 124.81796875 41.54296875 126.46796875 41.54296875 128.16796875 C39.56296875 128.16796875 37.58296875 128.16796875 35.54296875 128.16796875 C35.54296875 126.83463542 35.54296875 125.50130208 35.54296875 124.16796875 C33.0703011 124.51241756 33.0703011 124.51241756 30.54296875 125.16796875 C30.21296875 125.82796875 29.88296875 126.48796875 29.54296875 127.16796875 C25.76599413 128.64254103 21.63382919 128.34789947 17.63671875 128.37109375 C16.87500366 128.37679382 16.11328857 128.3824939 15.32849121 128.3883667 C13.72144958 128.3977918 12.11438884 128.40434076 10.50732422 128.40820312 C8.0514167 128.41793527 5.59633726 128.44899156 3.140625 128.48046875 C1.57682787 128.48699692 0.01302478 128.49224812 -1.55078125 128.49609375 C-2.64936462 128.51461395 -2.64936462 128.51461395 -3.7701416 128.5335083 C-8.01652899 128.51497219 -10.33279965 128.07582932 -13.45703125 125.16796875 C-15.79828785 124.1881753 -15.79828785 124.1881753 -18.20703125 123.48046875 C-19.00625 123.22910156 -19.80546875 122.97773437 -20.62890625 122.71875 C-21.2321875 122.53699219 -21.83546875 122.35523437 -22.45703125 122.16796875 C-22.45703125 121.50796875 -22.45703125 120.84796875 -22.45703125 120.16796875 C-23.15828125 119.94109375 -23.85953125 119.71421875 -24.58203125 119.48046875 C-27.0879015 118.3364845 -28.54500457 117.36749683 -30.58203125 115.60546875 C-33.26307321 113.02579112 -33.26307321 113.02579112 -36.45703125 112.16796875 C-36.45703125 111.50796875 -36.45703125 110.84796875 -36.45703125 110.16796875 C-37.11703125 109.83796875 -37.77703125 109.50796875 -38.45703125 109.16796875 C-39.26140625 108.19859375 -40.06578125 107.22921875 -40.89453125 106.23046875 C-43.28890715 103.07626469 -43.28890715 103.07626469 -46.45703125 101.16796875 C-45.79703125 101.16796875 -45.13703125 101.16796875 -44.45703125 101.16796875 C-45.19953125 99.99234375 -45.19953125 99.99234375 -45.95703125 98.79296875 C-47.45703125 96.16796875 -47.45703125 96.16796875 -47.45703125 94.16796875 C-48.11703125 93.83796875 -48.77703125 93.50796875 -49.45703125 93.16796875 C-50.47232666 90.8412501 -51.47191323 88.50762405 -52.45703125 86.16796875 C-53.11703125 85.50796875 -53.77703125 84.84796875 -54.45703125 84.16796875 C-54.66936585 81.27380102 -54.76099152 78.47781566 -54.7578125 75.58203125 C-54.76209763 74.72870209 -54.76638275 73.87537292 -54.77079773 72.9961853 C-54.77654654 71.18887215 -54.77703725 69.38153585 -54.77270508 67.57421875 C-54.76955159 64.81079459 -54.79297416 62.04844743 -54.81835938 59.28515625 C-54.82063299 57.52994927 -54.82133558 55.77473941 -54.8203125 54.01953125 C-54.82952225 53.19337311 -54.83873199 52.36721497 -54.84822083 51.51602173 C-54.81248441 47.07505722 -54.66433675 44.51406402 -51.45703125 41.16796875 C-50.74540682 39.51999639 -50.06671172 37.85631467 -49.45703125 36.16796875 C-51.10703125 36.16796875 -52.75703125 36.16796875 -54.45703125 36.16796875 C-54.45703125 34.84796875 -54.45703125 33.52796875 -54.45703125 32.16796875 C-51.81703125 32.16796875 -49.17703125 32.16796875 -46.45703125 32.16796875 C-46.45703125 30.84796875 -46.45703125 29.52796875 -46.45703125 28.16796875 C-44.76953125 26.23046875 -44.76953125 26.23046875 -42.45703125 24.16796875 C-41.71453125 23.42546875 -40.97203125 22.68296875 -40.20703125 21.91796875 C-36.62369792 18.33463542 -33.04036458 14.75130208 -29.45703125 11.16796875 C-28.96460937 10.59304688 -28.4721875 10.018125 -27.96484375 9.42578125 C-26.45703125 8.16796875 -26.45703125 8.16796875 -22.45703125 8.16796875 C-22.45703125 7.50796875 -22.45703125 6.84796875 -22.45703125 6.16796875 C-21.46703125 6.16796875 -20.47703125 6.16796875 -19.45703125 6.16796875 C-19.12703125 5.50796875 -18.79703125 4.84796875 -18.45703125 4.16796875 C-16.4609375 3.3515625 -16.4609375 3.3515625 -14.01953125 2.60546875 C-9.0402517 1.0629311 -5.28022505 0.0081872 0 0 Z M67.54296875 33.16796875 C68.54296875 36.16796875 68.54296875 36.16796875 68.54296875 36.16796875 Z " fill="#FCF8F9" transform="translate(54.45703125,-0.16796875)"/>
<path d="M0 0 C0.73997726 -0.0033284 1.47995453 -0.0066568 2.24235535 -0.01008606 C3.81008279 -0.01515273 5.37782102 -0.01749447 6.94555664 -0.01733398 C9.33563228 -0.01951316 11.72524088 -0.03765089 14.11523438 -0.05664062 C15.63932134 -0.05957613 17.1634105 -0.06155987 18.6875 -0.0625 C19.75494194 -0.07327827 19.75494194 -0.07327827 20.84394836 -0.08427429 C23.99969451 -0.06986643 26.40439466 0.11164851 29.34643555 1.30737305 C30.0712915 1.59136963 30.79614746 1.87536621 31.54296875 2.16796875 C32.53296875 1.50796875 33.52296875 0.84796875 34.54296875 0.16796875 C35.86296875 0.16796875 37.18296875 0.16796875 38.54296875 0.16796875 C41.54296875 6.04296875 41.54296875 6.04296875 41.54296875 7.16796875 C44.51296875 7.66296875 44.51296875 7.66296875 47.54296875 8.16796875 C47.21296875 8.82796875 46.88296875 9.48796875 46.54296875 10.16796875 C47.14109375 10.43609375 47.73921875 10.70421875 48.35546875 10.98046875 C50.52821967 12.15996211 51.8491524 13.39716075 53.54296875 15.16796875 C54.53296875 15.66296875 54.53296875 15.66296875 55.54296875 16.16796875 C55.54296875 16.82796875 55.54296875 17.48796875 55.54296875 18.16796875 C56.20296875 18.49796875 56.86296875 18.82796875 57.54296875 19.16796875 C58.45832531 20.32464659 59.32950163 21.51689793 60.16796875 22.73046875 C60.61398438 23.37113281 61.06 24.01179688 61.51953125 24.671875 C61.85726562 25.16558594 62.195 25.65929687 62.54296875 26.16796875 C62.35734375 25.40484375 62.17171875 24.64171875 61.98046875 23.85546875 C61.54296875 21.16796875 61.54296875 21.16796875 62.54296875 18.16796875 C63.20296875 18.16796875 63.86296875 18.16796875 64.54296875 18.16796875 C64.71170353 19.60522746 64.87787612 21.04278713 65.04296875 22.48046875 C65.13578125 23.28097656 65.22859375 24.08148437 65.32421875 24.90625 C65.55919523 27.33573892 65.54296875 29.72923538 65.54296875 32.16796875 C67.52296875 32.49796875 69.50296875 32.82796875 71.54296875 33.16796875 C71.87296875 34.15796875 72.20296875 35.14796875 72.54296875 36.16796875 C71.54296875 38.16796875 71.54296875 38.16796875 70.54296875 39.16796875 C71.44064531 42.29952745 71.44064531 42.29952745 73.54296875 45.16796875 C73.71519223 48.14187936 73.77491076 51.01999793 73.73828125 53.9921875 C73.73545135 54.85358841 73.73262146 55.71498932 73.72970581 56.60249329 C73.71851112 59.35362644 73.69340796 62.104434 73.66796875 64.85546875 C73.65793802 66.72069842 73.64881234 68.5859332 73.640625 70.45117188 C73.61857413 75.02356295 73.58404924 79.59571064 73.54296875 84.16796875 C72.55296875 84.66296875 72.55296875 84.66296875 71.54296875 85.16796875 C70.74172251 87.11467221 70.74172251 87.11467221 70.10546875 89.41796875 C68.97656716 93.0224312 67.65079647 96.00622717 65.54296875 99.16796875 C65.21296875 99.82796875 64.88296875 100.48796875 64.54296875 101.16796875 C62.87630208 102.83463542 61.20963542 104.50130208 59.54296875 106.16796875 C58.90359375 106.99296875 58.26421875 107.81796875 57.60546875 108.66796875 C55.14229645 111.65363214 52.62417502 113.82357267 49.54296875 116.16796875 C48.88296875 116.16796875 48.22296875 116.16796875 47.54296875 116.16796875 C47.87296875 117.15796875 48.20296875 118.14796875 48.54296875 119.16796875 C45.56055328 119.94118757 42.567164 120.57993078 39.54296875 121.16796875 C39.54296875 121.82796875 39.54296875 122.48796875 39.54296875 123.16796875 C40.20296875 123.16796875 40.86296875 123.16796875 41.54296875 123.16796875 C41.54296875 124.81796875 41.54296875 126.46796875 41.54296875 128.16796875 C39.56296875 128.16796875 37.58296875 128.16796875 35.54296875 128.16796875 C35.54296875 125.16796875 35.54296875 125.16796875 37.54296875 123.16796875 C37.21296875 122.50796875 36.88296875 121.84796875 36.54296875 121.16796875 C35.82109375 121.22984375 35.09921875 121.29171875 34.35546875 121.35546875 C30.93320508 121.12731784 29.21141016 120.30272188 26.54296875 118.16796875 C26.54296875 116.84796875 26.54296875 115.52796875 26.54296875 114.16796875 C27.0534375 113.98363281 27.56390625 113.79929687 28.08984375 113.609375 C43.13583373 107.60698538 52.1252461 97.34216237 58.5 82.80859375 C58.84417969 81.9371875 59.18835938 81.06578125 59.54296875 80.16796875 C59.9090625 79.265625 60.27515625 78.36328125 60.65234375 77.43359375 C64.34319112 63.90048673 61.6544368 49.77043763 55.19140625 37.62890625 C47.1986372 24.63507501 34.90304107 16.32549983 20.21875 12.57421875 C3.27363156 10.00152924 -10.57203706 13.88448795 -24.51953125 23.60546875 C-33.69187897 30.81231339 -39.90792552 42.23256979 -42.1484375 53.59375 C-43.24492829 62.7404263 -42.49924949 72.04855915 -41.45703125 81.16796875 C-42.44703125 81.66296875 -42.44703125 81.66296875 -43.45703125 82.16796875 C-43.45703125 81.50796875 -43.45703125 80.84796875 -43.45703125 80.16796875 C-44.44703125 79.83796875 -45.43703125 79.50796875 -46.45703125 79.16796875 C-47.11703125 80.15796875 -47.77703125 81.14796875 -48.45703125 82.16796875 C-48.45703125 81.50796875 -48.45703125 80.84796875 -48.45703125 80.16796875 C-49.77703125 79.50796875 -51.09703125 78.84796875 -52.45703125 78.16796875 C-52.45703125 77.17796875 -52.45703125 76.18796875 -52.45703125 75.16796875 C-53.11703125 75.16796875 -53.77703125 75.16796875 -54.45703125 75.16796875 C-54.53133619 70.9687869 -54.58570538 66.76995601 -54.62182617 62.5703125 C-54.63688806 61.14251029 -54.65734187 59.71475415 -54.68334961 58.28710938 C-54.71984967 56.23165502 -54.73678291 54.1768137 -54.75 52.12109375 C-54.76571045 50.88520508 -54.7814209 49.64931641 -54.79760742 48.37597656 C-54.42841432 44.89841575 -53.74071154 43.71789326 -51.45703125 41.16796875 C-50.74540682 39.51999639 -50.06671172 37.85631467 -49.45703125 36.16796875 C-51.10703125 36.16796875 -52.75703125 36.16796875 -54.45703125 36.16796875 C-54.45703125 34.84796875 -54.45703125 33.52796875 -54.45703125 32.16796875 C-51.81703125 32.16796875 -49.17703125 32.16796875 -46.45703125 32.16796875 C-46.45703125 30.84796875 -46.45703125 29.52796875 -46.45703125 28.16796875 C-44.76953125 26.23046875 -44.76953125 26.23046875 -42.45703125 24.16796875 C-41.71453125 23.42546875 -40.97203125 22.68296875 -40.20703125 21.91796875 C-36.62369792 18.33463542 -33.04036458 14.75130208 -29.45703125 11.16796875 C-28.96460937 10.59304688 -28.4721875 10.018125 -27.96484375 9.42578125 C-26.45703125 8.16796875 -26.45703125 8.16796875 -22.45703125 8.16796875 C-22.45703125 7.50796875 -22.45703125 6.84796875 -22.45703125 6.16796875 C-21.46703125 6.16796875 -20.47703125 6.16796875 -19.45703125 6.16796875 C-19.12703125 5.50796875 -18.79703125 4.84796875 -18.45703125 4.16796875 C-16.4609375 3.3515625 -16.4609375 3.3515625 -14.01953125 2.60546875 C-9.0402517 1.0629311 -5.28022505 0.0081872 0 0 Z M67.54296875 33.16796875 C68.54296875 36.16796875 68.54296875 36.16796875 68.54296875 36.16796875 Z " fill="#4F5EF8" transform="translate(54.45703125,-0.16796875)"/>
<path d="M0 0 C0.89828522 -0.03220139 1.79657043 -0.06440277 2.72207642 -0.09757996 C6.85414696 -0.20819325 10.98605613 -0.29068887 15.11914062 -0.35253906 C17.29604424 -0.39417206 19.47266526 -0.45551383 21.6484375 -0.53710938 C39.54190028 -1.19746012 39.54190028 -1.19746012 44.5402832 2.09228516 C46.44312866 4.73478463 47.57476351 7.24811186 48.77490234 10.2722168 C49.97911492 12.39756213 51.20539603 14.51051835 52.45068359 16.61206055 C53.66844916 18.80822423 54.88064635 21.00748432 56.08740234 23.2097168 C57.31168952 25.4277022 58.53690627 27.64517483 59.76318359 29.86206055 C60.29468018 30.83006592 60.82617676 31.79807129 61.3737793 32.79541016 C62.43188103 34.66584788 63.58286252 36.48415706 64.77490234 38.2722168 C64.78402452 45.25980532 61.16961094 50.51573436 57.71240234 56.3972168 C57.12620117 57.41315918 56.54 58.42910156 55.93603516 59.47583008 C44.0359545 80.01116464 44.0359545 80.01116464 41.77490234 82.2722168 C39.92202733 82.34448181 38.06656357 82.35602899 36.21240234 82.3347168 C35.20048828 82.32569336 34.18857422 82.31666992 33.14599609 82.30737305 C32.36353516 82.29577148 31.58107422 82.28416992 30.77490234 82.2722168 C32.51462239 75.69291191 36.30418735 70.48962955 40.05029297 64.9050293 C40.54078125 64.13932617 41.03126953 63.37362305 41.53662109 62.5847168 C41.98996826 61.90022461 42.44331543 61.21573242 42.91040039 60.51049805 C45.11737249 54.79642851 41.50234951 48.15280654 39.17944336 42.90283203 C34.4450015 32.8567087 34.4450015 32.8567087 25.7557373 26.53173828 C14.77403114 23.98240285 2.88882008 25.16710707 -8.22509766 26.2722168 C-8.50144043 27.00142334 -8.7777832 27.73062988 -9.0625 28.48193359 C-10.1565148 31.10761506 -11.39187913 33.46427351 -12.82666016 35.91674805 C-13.31650391 36.75786133 -13.80634766 37.59897461 -14.31103516 38.46557617 C-14.81892578 39.32989258 -15.32681641 40.19420898 -15.85009766 41.0847168 C-16.36572266 41.96836914 -16.88134766 42.85202148 -17.41259766 43.76245117 C-18.68040879 45.93416469 -19.95132114 48.1039986 -21.22509766 50.2722168 C-24.22509766 49.2722168 -24.22509766 49.2722168 -25.91259766 46.5222168 C-27.23101242 43.25757071 -27.56012637 41.71201543 -27.22509766 38.2722168 C-26.06689453 35.70776367 -26.06689453 35.70776367 -24.44384766 32.9909668 C-23.55669067 31.4886853 -23.55669067 31.4886853 -22.65161133 29.95605469 C-22.01586182 28.90538818 -21.3801123 27.85472168 -20.72509766 26.7722168 C-20.08741455 25.70028076 -19.44973145 24.62834473 -18.79272461 23.52392578 C-16.94894603 20.43254788 -15.09015816 17.35079055 -13.22509766 14.2722168 C-12.75249512 13.48862793 -12.27989258 12.70503906 -11.79296875 11.89770508 C-4.7070113 0.16567423 -4.7070113 0.16567423 0 0 Z " fill="#FE12A2" transform="translate(45.22509765625,22.727783203125)"/>
<path d="M0 0 C10.14752753 -1.47311957 21.03217188 -2.99507128 31 0 C38.1013185 5.65169848 42.85343128 15.2494941 45 24 C44.6803952 28.01872005 43.14809005 30.83882681 41.09375 34.265625 C40.22556641 35.72355469 40.22556641 35.72355469 39.33984375 37.2109375 C38.42912109 38.71527344 38.42912109 38.71527344 37.5 40.25 C36.89285156 41.26835938 36.28570312 42.28671875 35.66015625 43.3359375 C31.17924626 50.82075374 31.17924626 50.82075374 30 52 C27.32941149 52.14115161 24.67567762 52.04247107 22 52 C22.48803493 48.94978167 23.40706494 47.36545759 25.125 44.6875 C26.62343998 42.06661235 27.00363691 40.93817248 27.1875 37.8125 C25.66270101 32.9170927 23.20086953 28.91165597 20.49609375 24.57421875 C19 22 19 22 19 20 C8.40604924 19.36932027 8.40604924 19.36932027 -2 21 C-5.76220686 24.57358674 -7.17925715 28.2286462 -9 33 C-9.66 33 -10.32 33 -11 33 C-12.96227408 30.45631138 -14.09369706 28.93276936 -13.76586914 25.66918945 C-12.89349795 22.6288215 -11.63608376 20.22193196 -10.05859375 17.48046875 C-9.47529297 16.45888672 -8.89199219 15.43730469 -8.29101562 14.38476562 C-7.67935547 13.32966797 -7.06769531 12.27457031 -6.4375 11.1875 C-5.82197266 10.11306641 -5.20644531 9.03863281 -4.57226562 7.93164062 C-3.05435656 5.28412482 -1.53010236 2.64048144 0 0 Z " fill="#FE6036" transform="translate(40,53)"/>
<path d="M0 0 C0.66 0 1.32 0 2 0 C2.433125 0.9590625 2.433125 0.9590625 2.875 1.9375 C3.82823451 4.15206079 3.82823451 4.15206079 6 5 C6.66 4.34 7.32 3.68 8 3 C9.32 3.99 10.64 4.98 12 6 C12.66 5.67 13.32 5.34 14 5 C14.17273437 5.57105469 14.34546875 6.14210938 14.5234375 6.73046875 C19.10687902 19.95516927 28.0670952 29.77737451 40.34765625 36.234375 C47.90807649 39.81357909 55.1281597 41.33887134 63.4375 41.1875 C64.54629517 41.17783203 64.54629517 41.17783203 65.67749023 41.16796875 C70.83982482 41.09533175 75.88674211 40.7437466 81 40 C81.33 40.99 81.66 41.98 82 43 C84.09719872 44.02281518 84.09719872 44.02281518 86.5625 44.6875 C87.38878906 44.93886719 88.21507813 45.19023438 89.06640625 45.44921875 C89.70449219 45.63097656 90.34257813 45.81273437 91 46 C90.67 46.99 90.34 47.98 90 49 C89.195625 49.12375 88.39125 49.2475 87.5625 49.375 C86.716875 49.58125 85.87125 49.7875 85 50 C84.505 50.99 84.505 50.99 84 52 C80.22302538 53.47457228 76.09086044 53.17993072 72.09375 53.203125 C71.33203491 53.20882507 70.57031982 53.21452515 69.78552246 53.22039795 C68.17848083 53.22982305 66.57142009 53.23637201 64.96435547 53.24023438 C62.50844795 53.24996652 60.05336851 53.28102281 57.59765625 53.3125 C56.03385912 53.31902817 54.47005603 53.32427937 52.90625 53.328125 C51.80766663 53.3466452 51.80766663 53.3466452 50.68688965 53.36553955 C46.44050226 53.34700344 44.1242316 52.90786057 41 50 C38.6587434 49.02020655 38.6587434 49.02020655 36.25 48.3125 C35.05117187 47.93544922 35.05117187 47.93544922 33.828125 47.55078125 C33.22484375 47.36902344 32.6215625 47.18726563 32 47 C32 46.34 32 45.68 32 45 C31.29875 44.773125 30.5975 44.54625 29.875 44.3125 C27.36912975 43.16851575 25.91202668 42.19952808 23.875 40.4375 C21.19395804 37.85782237 21.19395804 37.85782237 18 37 C18 36.34 18 35.68 18 35 C17.34 34.67 16.68 34.34 16 34 C15.195625 33.030625 14.39125 32.06125 13.5625 31.0625 C11.1681241 27.90829594 11.1681241 27.90829594 8 26 C8.66 26 9.32 26 10 26 C9.505 25.21625 9.01 24.4325 8.5 23.625 C7 21 7 21 7 19 C6.34 18.67 5.68 18.34 5 18 C3.98470459 15.67328135 2.98511802 13.3396553 2 11 C1.34 10.34 0.68 9.68 0 9 C-0.1953125 6.8359375 -0.1953125 6.8359375 -0.125 4.375 C-0.10695312 3.55773437 -0.08890625 2.74046875 -0.0703125 1.8984375 C-0.04710937 1.27195312 -0.02390625 0.64546875 0 0 Z " fill="#F30D66" transform="translate(0,75)"/>
<path d="M0 0 C2.51953125 -0.04296875 2.51953125 -0.04296875 6.51953125 0.76953125 C6.84953125 3.73953125 7.17953125 6.70953125 7.51953125 9.76953125 C10.48953125 10.09953125 13.45953125 10.42953125 16.51953125 10.76953125 C16.51953125 11.42953125 16.51953125 12.08953125 16.51953125 12.76953125 C17.17953125 12.76953125 17.83953125 12.76953125 18.51953125 12.76953125 C19.02786716 14.01616456 19.5258427 15.26702512 20.01953125 16.51953125 C20.29796875 17.215625 20.57640625 17.91171875 20.86328125 18.62890625 C21.51953125 20.76953125 21.51953125 20.76953125 21.51953125 24.76953125 C20.80522949 24.67414062 20.09092773 24.57875 19.35498047 24.48046875 C11.37346033 23.59577633 3.14007304 22.84238207 -4.48046875 25.76953125 C-11.35425257 32.10871606 -15.06721234 41.21346963 -18.48046875 49.76953125 C-21.48046875 48.76953125 -21.48046875 48.76953125 -23.16796875 46.01953125 C-24.48638352 42.75488516 -24.81549746 41.20932988 -24.48046875 37.76953125 C-23.32226562 35.20507812 -23.32226562 35.20507812 -21.69921875 32.48828125 C-21.10842529 31.48667969 -20.51763184 30.48507813 -19.90893555 29.453125 C-19.2725415 28.40253906 -18.63614746 27.35195313 -17.98046875 26.26953125 C-17.01524292 24.66271484 -17.01524292 24.66271484 -16.03051758 23.0234375 C-14.75467127 20.90051158 -13.4758526 18.77936874 -12.19384766 16.66015625 C-10.75606342 14.23448435 -9.39648503 11.79639211 -8.0859375 9.30078125 C-3.72539137 1.15575134 -3.72539137 1.15575134 0 0 Z " fill="#FE1A6E" transform="translate(42.48046875,23.23046875)"/>
<path d="M0 0 C3.34333794 0.32373734 5.52385663 0.88010623 8.18115234 2.96069336 C9.80936089 5.29751101 10.86589842 7.45842158 11.84130859 10.12866211 C12.25380859 11.09803711 12.66630859 12.06741211 13.09130859 13.06616211 C12.67480061 18.16838485 9.47815134 23.49181936 5.84130859 27.12866211 C0.57646738 27.88954825 -4.9577959 28.54611103 -10.15869141 27.12866211 C-13.77661124 24.02225966 -15.78683596 20.68715935 -17.15869141 16.12866211 C-16.21833966 5.247449 -10.81547434 -0.29478956 0 0 Z " fill="#FEBE0F" transform="translate(50.15869140625,76.871337890625)"/>
<path d="M0 0 C15.18 0 30.36 0 46 0 C46 0.33 46 0.66 46 1 C39.4 1 32.8 1 26 1 C26.66 2.876875 27.32 4.75375 28 6.6875 C29.38686967 10.63141063 30.24879397 13.8093765 30 18 C30.66 18 31.32 18 32 18 C32.495 18.99 32.495 18.99 33 20 C35.52733235 20.65555119 35.52733235 20.65555119 38 21 C38.19916016 21.92232422 38.19916016 21.92232422 38.40234375 22.86328125 C38.57894531 23.67152344 38.75554687 24.47976562 38.9375 25.3125 C39.11152344 26.11300781 39.28554687 26.91351563 39.46484375 27.73828125 C39.99886159 30.145401 39.99886159 30.145401 41 33 C40.34 33 39.68 33 39 33 C39 32.34 39 31.68 39 31 C38.01 30.67 37.02 30.34 36 30 C35.34 29.34 34.68 28.68 34 28 C30.89008604 26.44504302 27.56655951 26.75923044 24.1484375 26.68359375 C23.37440582 26.66281265 22.60037415 26.64203156 21.80288696 26.62062073 C19.32701608 26.55516552 16.85103798 26.49625913 14.375 26.4375 C12.69790552 26.39431093 11.02082193 26.35069652 9.34375 26.30664062 C5.22927692 26.19948829 1.11469586 26.09820955 -3 26 C-3 25.67 -3 25.34 -3 25 C5.58 25 14.16 25 23 25 C22.01 22.36 21.02 19.72 20 17 C20 15.68 20 14.36 20 13 C19.34 13 18.68 13 18 13 C18 12.34 18 11.68 18 11 C16.88625 11.020625 15.7725 11.04125 14.625 11.0625 C11 11 11 11 9 10 C8.5859375 7.93359375 8.5859375 7.93359375 8.375 5.4375 C8.30023438 4.61121094 8.22546875 3.78492188 8.1484375 2.93359375 C8.09945312 2.29550781 8.05046875 1.65742188 8 1 C5.36 1 2.72 1 0 1 C0 0.67 0 0.34 0 0 Z " fill="#FE1BAB" transform="translate(41,23)"/>
<path d="M0 0 C0.98226562 0.16242188 1.96453125 0.32484375 2.9765625 0.4921875 C7.12096845 1.08186416 11.19455368 1.15134241 15.375 1.125 C16.1187085 1.12306641 16.86241699 1.12113281 17.62866211 1.11914062 C22.81554913 1.07833915 27.86157844 0.74740677 33 0 C33.495 1.485 33.495 1.485 34 3 C36.09719872 4.02281518 36.09719872 4.02281518 38.5625 4.6875 C39.38878906 4.93886719 40.21507812 5.19023438 41.06640625 5.44921875 C41.70449219 5.63097656 42.34257813 5.81273438 43 6 C42.67 6.99 42.34 7.98 42 9 C41.195625 9.12375 40.39125 9.2475 39.5625 9.375 C38.716875 9.58125 37.87125 9.7875 37 10 C36.67 10.66 36.34 11.32 36 12 C32.00249918 13.35985837 27.92111887 13.11040154 23.75 13.0625 C23.00492188 13.05798828 22.25984375 13.05347656 21.4921875 13.04882812 C19.6614236 13.03709246 17.83070127 13.0191585 16 13 C16 12.34 16 11.68 16 11 C14.35 11 12.7 11 11 11 C10.67 9.68 10.34 8.36 10 7 C7.36 6.34 4.72 5.68 2 5 C2 4.34 2 3.68 2 3 C1.34 3 0.68 3 0 3 C0 2.01 0 1.02 0 0 Z " fill="#F1107D" transform="translate(48,115)"/>
<path d="M0 0 C0.66 0 1.32 0 2 0 C1.731875 0.70125 1.46375 1.4025 1.1875 2.125 C0.96999265 5.46011275 1.36830612 5.86550387 3.4375 8.3125 C4.283125 9.199375 5.12875 10.08625 6 11 C2.65038916 17.9064141 -0.79753142 24.57269512 -5 31 C-8 30 -8 30 -9.6875 27.25 C-11.28983496 23.28231343 -11.71139224 20.681521 -10.02197266 16.68823242 C-9.5738623 15.91842041 -9.12575195 15.1486084 -8.6640625 14.35546875 C-7.93316406 13.09379883 -7.93316406 13.09379883 -7.1875 11.80664062 C-6.4140625 10.51016602 -6.4140625 10.51016602 -5.625 9.1875 C-5.11710937 8.30384766 -4.60921875 7.42019531 -4.0859375 6.50976562 C-1.26414604 1.7015815 -1.26414604 1.7015815 0 0 Z " fill="#FE8229" transform="translate(29,42)"/>
<path d="M0 0 C0.66 0.33 1.32 0.66 2 1 C2.6328125 3.06640625 2.6328125 3.06640625 3.125 5.5625 C3.29257813 6.38878906 3.46015625 7.21507813 3.6328125 8.06640625 C3.75398438 8.70449219 3.87515625 9.34257813 4 10 C4.99 9.34 5.98 8.68 7 8 C5.63498381 11.66642029 3.97203048 14.91077061 1.9375 18.25 C1.41027344 19.12140625 0.88304688 19.9928125 0.33984375 20.890625 C-1 23 -1 23 -2 24 C-3.85287502 24.07226502 -5.70833878 24.0838122 -7.5625 24.0625 C-8.57441406 24.05347656 -9.58632812 24.04445313 -10.62890625 24.03515625 C-11.41136719 24.02355469 -12.19382812 24.01195313 -13 24 C-11.45196735 18.23684231 -8.51721614 13.62543026 -5.375 8.625 C-4.859375 7.79355469 -4.34375 6.96210937 -3.8125 6.10546875 C-2.54713205 4.06682038 -1.27621134 2.03187118 0 0 Z " fill="#FE8D2B" transform="translate(89,81)"/>
<path d="M0 0 C0.66 0 1.32 0 2 0 C2.433125 0.9590625 2.433125 0.9590625 2.875 1.9375 C3.82823451 4.15206079 3.82823451 4.15206079 6 5 C6.66 4.34 7.32 3.68 8 3 C9.32 3.99 10.64 4.98 12 6 C12.66 5.67 13.32 5.34 14 5 C15.32 8.63 16.64 12.26 18 16 C12.70678165 17.05864367 8.9646052 17.15228549 4 15 C1.9375 11.875 1.9375 11.875 1 9 C0.67 9 0.34 9 0 9 C0 6.03 0 3.06 0 0 Z " fill="#EB14AA" transform="translate(0,75)"/>
<path d="M0 0 C0.33 0.99 0.66 1.98 1 3 C3.09719872 4.02281518 3.09719872 4.02281518 5.5625 4.6875 C6.38878906 4.93886719 7.21507813 5.19023438 8.06640625 5.44921875 C8.70449219 5.63097656 9.34257813 5.81273438 10 6 C9.67 6.99 9.34 7.98 9 9 C8.195625 9.12375 7.39125 9.2475 6.5625 9.375 C5.716875 9.58125 4.87125 9.7875 4 10 C3.67 10.66 3.34 11.32 3 12 C0.03 11.505 0.03 11.505 -3 11 C-3 10.34 -3 9.68 -3 9 C-4.36125 8.566875 -4.36125 8.566875 -5.75 8.125 C-8.32202908 7.23468224 -10.61346766 6.28505587 -13 5 C-13 4.34 -13 3.68 -13 3 C-16.3 3 -19.6 3 -23 3 C-23 2.67 -23 2.34 -23 2 C-22.04738281 1.93941406 -21.09476563 1.87882812 -20.11328125 1.81640625 C-18.23189453 1.69072266 -18.23189453 1.69072266 -16.3125 1.5625 C-15.07113281 1.48128906 -13.82976562 1.40007812 -12.55078125 1.31640625 C-8.26150312 0.93419335 -4.31707452 0 0 0 Z " fill="#EC16AB" transform="translate(81,115)"/>
<path d="M0 0 C2.25133315 1.52509665 2.93983891 2.81834728 3.9375 5.3125 C4.9275 5.3125 5.9175 5.3125 6.9375 5.3125 C6.9375 5.9725 6.9375 6.6325 6.9375 7.3125 C7.700625 7.395 8.46375 7.4775 9.25 7.5625 C12.53032427 8.47793933 13.2716214 9.39721245 14.9375 12.3125 C15.625 14.5625 15.625 14.5625 15.9375 16.3125 C14.9475 16.3125 13.9575 16.3125 12.9375 16.3125 C12.6075 15.6525 12.2775 14.9925 11.9375 14.3125 C11.215625 14.044375 10.49375 13.77625 9.75 13.5 C7.20813431 12.42676782 5.84894496 11.51728889 3.8125 9.75 C1.13145804 7.17032237 1.13145804 7.17032237 -2.0625 6.3125 C-2.0625 5.6525 -2.0625 4.9925 -2.0625 4.3125 C-2.7225 3.9825 -3.3825 3.6525 -4.0625 3.3125 C-4.3925 2.3225 -4.7225 1.3325 -5.0625 0.3125 C-2.0625 -0.6875 -2.0625 -0.6875 0 0 Z " fill="#F6073D" transform="translate(20.0625,105.6875)"/>
<path d="M0 0 C0.66 0 1.32 0 2 0 C4.58502989 2.79183228 5.90881701 5.17031455 6 9 C4.5625 12.3125 4.5625 12.3125 2 15 C-0.84880929 15.52635143 -3.07179361 15.29282064 -6 15 C-5.42482026 11.4051266 -3.74776707 8.75982496 -1.921875 5.68359375 C-0.90544138 3.82731031 -0.33443221 2.09020128 0 0 Z " fill="#FEB81F" transform="translate(68,90)"/>
<path d="M0 0 C1.98 0 3.96 0 6 0 C6 0.66 6 1.32 6 2 C6.53625 2.103125 7.0725 2.20625 7.625 2.3125 C10.62502044 3.18092697 13.2379535 4.55620296 16 6 C16 6.66 16 7.32 16 8 C18.475 8.495 18.475 8.495 21 9 C17.98509443 10.00496852 15.95818308 10.10335303 12.8125 10.0625 C11.91144531 10.05347656 11.01039062 10.04445312 10.08203125 10.03515625 C9.39496094 10.02355469 8.70789063 10.01195312 8 10 C7.67 9.34 7.34 8.68 7 8 C6.01 7.67 5.02 7.34 4 7 C0 2.54285714 0 2.54285714 0 0 Z " fill="#EE0F8E" transform="translate(62,118)"/>
<path d="M0 0 C1.48206495 0.254496 2.96068615 0.52911762 4.4375 0.8125 C5.67306641 1.03873047 5.67306641 1.03873047 6.93359375 1.26953125 C7.61550781 1.51058594 8.29742187 1.75164062 9 2 C9.33 2.99 9.66 3.98 10 5 C11.65 5.33 13.3 5.66 15 6 C15 6.66 15 7.32 15 8 C8.73 8 2.46 8 -4 8 C-3.34 6.35 -2.68 4.7 -2 3 C-1.34 3 -0.68 3 0 3 C0 2.01 0 1.02 0 0 Z " fill="#F40A5E" transform="translate(49,120)"/>
<path d="M0 0 C0.33 0.99 0.66 1.98 1 3 C3.09719872 4.02281518 3.09719872 4.02281518 5.5625 4.6875 C6.38878906 4.93886719 7.21507813 5.19023438 8.06640625 5.44921875 C8.70449219 5.63097656 9.34257813 5.81273438 10 6 C9.67 6.99 9.34 7.98 9 9 C8.195625 9.12375 7.39125 9.2475 6.5625 9.375 C5.716875 9.58125 4.87125 9.7875 4 10 C3.67 10.66 3.34 11.32 3 12 C3 10.35 3 8.7 3 7 C0.69 6.34 -1.62 5.68 -4 5 C-4 4.01 -4 3.02 -4 2 C-5.65 2 -7.3 2 -9 2 C-9 1.67 -9 1.34 -9 1 C-5.846632 0.29925156 -3.27275026 0 0 0 Z " fill="#EA1ECA" transform="translate(81,115)"/>
<path d="M0 0 C2.50440935 1.77732276 3.02798883 3.4948813 3.9375 6.375 C0.9375 7.375 0.9375 7.375 -2.0625 6.375 C-2.0625 5.715 -2.0625 5.055 -2.0625 4.375 C-2.7225 4.045 -3.3825 3.715 -4.0625 3.375 C-4.3925 2.385 -4.7225 1.395 -5.0625 0.375 C-2.0625 -0.625 -2.0625 -0.625 0 0 Z " fill="#F20A4D" transform="translate(20.0625,105.625)"/>
<path d="M0 0 C7.75 1.875 7.75 1.875 10 3 C9.67 4.32 9.34 5.64 9 7 C4.545 6.01 4.545 6.01 0 5 C0 3.35 0 1.7 0 0 Z " fill="#EE0F89" transform="translate(5,89)"/>
<path d="M0 0 C3.3125 0.25 3.3125 0.25 7 1 C7.99 2.32 8.98 3.64 10 5 C6.04 5 2.08 5 -2 5 C-1.34 3.35 -0.68 1.7 0 0 Z " fill="#F50846" transform="translate(47,123)"/>
<path d="M0 0 C0.78375 0.515625 1.5675 1.03125 2.375 1.5625 C3.24125 2.036875 4.1075 2.51125 5 3 C5.66 2.67 6.32 2.34 7 2 C7.33 3.65 7.66 5.3 8 7 C5.125 7.125 5.125 7.125 2 7 C0 5 0 5 -0.125 2.375 C-0.08375 1.59125 -0.0425 0.8075 0 0 Z " fill="#EA1DC5" transform="translate(7,78)"/>
<path d="M0 0 C4.75 0.75 4.75 0.75 7 3 C9.57061311 3.64767793 9.57061311 3.64767793 12 4 C12 4.66 12 5.32 12 6 C10.02 6 8.04 6 6 6 C6 5.34 6 4.68 6 4 C4.35 4 2.7 4 1 4 C0.67 2.68 0.34 1.36 0 0 Z " fill="#F20C6E" transform="translate(58,122)"/>
<path d="M0 0 C1.98 0 3.96 0 6 0 C6.33 2.31 6.66 4.62 7 7 C6.01 6.67 5.02 6.34 4 6 C4 5.34 4 4.68 4 4 C2.68 4 1.36 4 0 4 C0 2.68 0 1.36 0 0 Z " fill="#FD03D7" transform="translate(61,24)"/>
<path d="M0 0 C3.77545388 1.09068668 6.47043472 1.9083091 9 5 C5.18510326 6.46726798 2.70988378 5.43336419 -1 4 C-0.67 2.68 -0.34 1.36 0 0 Z " fill="#8940B9" transform="translate(18,114)"/>
<path d="M0 0 C2.97 0 5.94 0 9 0 C8.67 0.99 8.34 1.98 8 3 C7.195625 3.12375 6.39125 3.2475 5.5625 3.375 C4.2940625 3.684375 4.2940625 3.684375 3 4 C2.67 4.66 2.34 5.32 2 6 C2 4.35 2 2.7 2 1 C1.34 0.67 0.68 0.34 0 0 Z " fill="#E815C3" transform="translate(82,121)"/>
<path d="M0 0 C2.475 0.99 2.475 0.99 5 2 C4.67 2.99 4.34 3.98 4 5 C3.01 5 2.02 5 1 5 C1 5.66 1 6.32 1 7 C-0.32 6.67 -1.64 6.34 -3 6 C-2.67 5.01 -2.34 4.02 -2 3 C-1.34 2.67 -0.68 2.34 0 2 C0 1.34 0 0.68 0 0 Z " fill="#7D45CF" transform="translate(107,113)"/>
<path d="M0 0 C0.99 0.33 1.98 0.66 3 1 C3 2.65 3 4.3 3 6 C1.02 6 -0.96 6 -3 6 C-3 3 -3 3 -1.5 1.3125 C-0.7575 0.6628125 -0.7575 0.6628125 0 0 Z " fill="#8444CF" transform="translate(93,122)"/>
<path d="M0 0 C0 3 0 3 -2.5 5.6875 C-3.325 6.450625 -4.15 7.21375 -5 8 C-5.33 7.01 -5.66 6.02 -6 5 C-2.25 1.125 -2.25 1.125 0 0 Z " fill="#833ED4" transform="translate(116,106)"/>
<path d="M0 0 C0.66 0.33 1.32 0.66 2 1 C2 2.65 2 4.3 2 6 C0.68 6 -0.64 6 -2 6 C-1.125 1.125 -1.125 1.125 0 0 Z " fill="#FF573C" transform="translate(89,81)"/>
<path d="M0 0 C0.66 0 1.32 0 2 0 C2.33 2.97 2.66 5.94 3 9 C2.67 8.01 2.34 7.02 2 6 C1.01 6 0.02 6 -1 6 C-0.67 4.02 -0.34 2.04 0 0 Z " fill="#7151D1" transform="translate(117,18)"/>
<path d="M0 0 C1.65 0 3.3 0 5 0 C5 1.32 5 2.64 5 4 C3.35 4 1.7 4 0 4 C0 2.68 0 1.36 0 0 Z " fill="#7B43D2" transform="translate(0,32)"/>
<path d="M0 0 C0.66 0 1.32 0 2 0 C1.75 2.875 1.75 2.875 1 6 C-1.0625 7.375 -1.0625 7.375 -3 8 C-1.125 2.25 -1.125 2.25 0 0 Z " fill="#FF4F4C" transform="translate(29,42)"/>
<path d="M0 0 C0.99 0.33 1.98 0.66 3 1 C2.34 2.32 1.68 3.64 1 5 C0.01 4.01 -0.98 3.02 -2 2 C-1.34 1.34 -0.68 0.68 0 0 Z " fill="#7152D1" transform="translate(108,10)"/>
<path d="M0 0 C0.33 0 0.66 0 1 0 C1 1.98 1 3.96 1 6 C0.01 6 -0.98 6 -2 6 C-1.125 1.125 -1.125 1.125 0 0 Z " fill="#7744D4" transform="translate(127,86)"/>
<path d="M0 0 C1.32 0.33 2.64 0.66 4 1 C4 1.99 4 2.98 4 4 C2.68 3.67 1.36 3.34 0 3 C0 2.01 0 1.02 0 0 Z " fill="#8344BF" transform="translate(34,124)"/>
<path d="M0 0 C2.31 0 4.62 0 7 0 C6.67 0.66 6.34 1.32 6 2 C3.4375 2.625 3.4375 2.625 1 3 C0.67 2.01 0.34 1.02 0 0 Z " fill="#5F5CD9" transform="translate(37,0)"/>
<path d="M0 0 C0.66 0 1.32 0 2 0 C1.67 0.99 1.34 1.98 1 3 C0.34 3 -0.32 3 -1 3 C-0.67 2.01 -0.34 1.02 0 0 Z " fill="#6C49D7" transform="translate(17,14)"/>
<path d="M0 0 C0.99 0.495 0.99 0.495 2 1 C1.67 1.99 1.34 2.98 1 4 C0.67 2.68 0.34 1.36 0 0 Z " fill="#7D43CF" transform="translate(0,38)"/>
<path d="M0 0 C0.66 0.66 1.32 1.32 2 2 C1.01 2.33 0.02 2.66 -1 3 C-0.67 2.01 -0.34 1.02 0 0 Z " fill="#7949CE" transform="translate(117,108)"/>
<path d="M0 0 C0 3 0 3 0 3 Z " fill="#7949CE" transform="translate(1,92)"/>
<path d="M0 0 C1 4 1 4 1 4 Z " fill="#8442C7" transform="translate(0,85)"/>
<path d="M0 0 C0.99 0.495 0.99 0.495 2 1 C1.01 1.495 1.01 1.495 0 2 C0 1.34 0 0.68 0 0 Z " fill="#8928E2" transform="translate(116,103)"/>
<path d="M0 0 C0.99 0.495 0.99 0.495 2 1 C1.01 1.495 1.01 1.495 0 2 C0 1.34 0 0.68 0 0 Z " fill="#4E4FE8" transform="translate(20,13)"/>
<path d="" fill="#A533C6" transform="translate(0,0)"/>
<path d="M0 0 C2 1 2 1 2 1 Z " fill="#794ACE" transform="translate(9,109)"/>
<path d="M0 0 C2 1 2 1 2 1 Z " fill="#7A49D0" transform="translate(9,107)"/>
<path d="M0 0 C2 1 2 1 2 1 Z " fill="#9B37AC" transform="translate(10,104)"/>
<path d="" fill="#793DD4" transform="translate(0,0)"/>
<path d="" fill="#7B48D0" transform="translate(0,0)"/>
<path d="" fill="#8138D6" transform="translate(0,0)"/>
<path d="" fill="#B32C8A" transform="translate(0,0)"/>
<path d="" fill="#9639AC" transform="translate(0,0)"/>
<path d="" fill="#CE1862" transform="translate(0,0)"/>
<path d="" fill="#8942BA" transform="translate(0,0)"/>
<path d="" fill="#A3349D" transform="translate(0,0)"/>
<path d="" fill="#7949D0" transform="translate(0,0)"/>
<path d="" fill="#794ACE" transform="translate(0,0)"/>
<path d="" fill="#A433A5" transform="translate(0,0)"/>
<path d="" fill="#9225E2" transform="translate(0,0)"/>
<path d="" fill="#C02583" transform="translate(0,0)"/>
<path d="" fill="#8742C3" transform="translate(0,0)"/>
<path d="" fill="#8820E7" transform="translate(0,0)"/>
<path d="" fill="#CB1F85" transform="translate(0,0)"/>
<path d="" fill="#7B48CB" transform="translate(0,0)"/>
<path d="" fill="#2898EE" transform="translate(0,0)"/>
<path d="" fill="#6E2DEB" transform="translate(0,0)"/>
<path d="" fill="#723BDE" transform="translate(0,0)"/>
<path d="" fill="#5A3BF0" transform="translate(0,0)"/>
<path d="" fill="#5551E3" transform="translate(0,0)"/>
<path d="" fill="#5752E0" transform="translate(0,0)"/>
<path d="" fill="#3D5CE8" transform="translate(0,0)"/>
</svg>
