<?xml version="1.0" encoding="UTF-8"?>
<svg version="1.1" xmlns="http://www.w3.org/2000/svg" width="128" height="128">
<path d="M0 0 C1.2682663 -0.01283524 2.53653259 -0.02567047 3.8432312 -0.03889465 C5.23418793 -0.04706139 6.62514907 -0.05450525 8.01611328 -0.0612793 C8.71537052 -0.06535482 9.41462776 -0.06943035 10.13507462 -0.07362938 C13.83548945 -0.09448725 17.53586722 -0.10879068 21.23632812 -0.11816406 C25.05875879 -0.12923386 28.88060814 -0.16364015 32.70283318 -0.20333576 C35.64194829 -0.2294759 38.58092427 -0.23785347 41.52014542 -0.24144554 C42.92916926 -0.24631758 44.33818665 -0.2579493 45.74709702 -0.27648354 C47.71927639 -0.30081681 49.69173821 -0.2974959 51.6640625 -0.29296875 C52.78610077 -0.29883499 53.90813904 -0.30470123 55.06417847 -0.31074524 C58.63304222 0.29006756 59.7293707 1.39155119 61.96142578 4.17700195 C63.17764544 6.07743087 64.32906782 8.02014125 65.43017578 9.98950195 C66.07857422 11.13821777 66.72697266 12.28693359 67.39501953 13.47045898 C68.08420032 14.7057621 68.77299462 15.94128091 69.46142578 17.17700195 C70.8846482 19.71824793 72.31213226 22.25705793 73.74267578 24.79418945 C74.09813477 25.42533661 74.45359375 26.05648376 74.81982422 26.70675659 C77.01249794 30.57559446 79.29512083 34.36753434 81.68017578 38.12231445 C82.23769531 39.00661133 82.79521484 39.8909082 83.36962891 40.80200195 C84.39689089 42.41537047 85.44136532 44.01796739 86.50634766 45.60668945 C89.97573565 51.0954267 91.1111424 55.71067667 89.96142578 62.17700195 C88.95516207 64.9416514 87.5301752 67.23813492 85.89892578 69.67700195 C84.98493287 71.13244461 84.07366367 72.58959986 83.16455078 74.0480957 C82.65859375 74.84844238 82.15263672 75.64878906 81.63134766 76.47338867 C78.68191499 81.24853741 75.92241553 86.13481394 73.13845825 91.00756836 C60.676261 112.81958434 60.676261 112.81958434 57.96142578 114.17700195 C55.95081719 114.28894746 53.93649644 114.33631209 51.92285156 114.35400391 C50.02045212 114.37325676 50.02045212 114.37325676 48.07962036 114.39289856 C46.68866363 114.40106529 45.29770249 114.40850915 43.90673828 114.4152832 C43.20748104 114.41935873 42.5082238 114.42343426 41.78777695 114.42763329 C38.08736211 114.44849116 34.38698434 114.46279459 30.68652344 114.47216797 C26.86409277 114.48323776 23.04224342 114.51764405 19.22001839 114.55733967 C16.28090327 114.58347981 13.34192729 114.59185738 10.40270615 114.59544945 C8.9936823 114.60032149 7.58466492 114.61195321 6.17575455 114.63048744 C4.20357517 114.65482071 2.23111335 114.6514998 0.25878906 114.64697266 C-0.86324921 114.6528389 -1.98528748 114.65870514 -3.1413269 114.66474915 C-6.71019066 114.06393634 -7.80651914 112.96245272 -10.03857422 110.17700195 C-11.25479388 108.27657304 -12.40621626 106.33386265 -13.50732422 104.36450195 C-14.47992187 102.64142822 -14.47992187 102.64142822 -15.47216797 100.88354492 C-16.16134876 99.64824181 -16.85014306 98.412723 -17.53857422 97.17700195 C-18.96179664 94.63575598 -20.38928069 92.09694597 -21.81982422 89.55981445 C-22.1752832 88.9286673 -22.53074219 88.29752014 -22.89697266 87.64724731 C-25.08964638 83.77840944 -27.37226927 79.98646956 -29.75732422 76.23168945 C-30.31484375 75.34739258 -30.87236328 74.4630957 -31.44677734 73.55200195 C-32.47403933 71.93863343 -33.51851376 70.33603652 -34.58349609 68.74731445 C-38.05288409 63.25857721 -39.18829084 58.64332723 -38.03857422 52.17700195 C-37.03231051 49.41235251 -35.60732363 47.11586898 -33.97607422 44.67700195 C-33.06208131 43.2215593 -32.15081211 41.76440404 -31.24169922 40.3059082 C-30.73574219 39.50556152 -30.22978516 38.70521484 -29.70849609 37.88061523 C-26.75906342 33.10546649 -23.99956396 28.21918997 -21.21560669 23.34643555 C-7.91646496 0.06955378 -7.91646496 0.06955378 0 0 Z M34.9420166 31.34823608 C33.42255595 34.1819744 31.7885687 36.94838697 30.17236328 39.7277832 C28.89180698 41.98060457 27.61321424 44.23454302 26.33642578 46.48950195 C24.94356072 48.94097268 23.5485668 51.3912266 22.15283203 53.84106445 C21.80421616 54.45316269 21.45560028 55.06526093 21.09642029 55.69590759 C16.9755939 62.92113964 12.77650406 70.10038623 8.56640625 77.27392578 C5.28814871 82.86755792 2.08071935 88.49309177 -1.03857422 94.17700195 C1.37929698 94.28526484 3.79230134 94.36439984 6.21142578 94.42700195 C6.89333984 94.46051758 7.57525391 94.4940332 8.27783203 94.52856445 C11.52424998 94.59160169 13.45406935 94.59959615 15.99707031 92.48144531 C18.05710326 90.06475988 19.54051948 87.70044804 21.06298828 84.9152832 C21.63009521 83.88798096 22.19720215 82.86067871 22.78149414 81.80224609 C23.37712158 80.70904053 23.97274902 79.61583496 24.58642578 78.48950195 C25.84936007 76.20227631 27.11368577 73.91581842 28.37939453 71.63012695 C28.99476074 70.51702148 29.61012695 69.40391602 30.24414062 68.25708008 C32.40446939 64.38237043 34.63170752 60.55237499 36.89892578 56.73950195 C40.97863806 49.85498749 45.02870941 42.95367682 49.04495239 36.0319519 C49.73626817 34.84214816 50.42918751 33.65327462 51.12374878 32.46536255 C52.09716984 30.80001242 53.06458449 29.13115586 54.03173828 27.4621582 C54.59650879 26.49157471 55.1612793 25.52099121 55.74316406 24.52099609 C57.11514892 22.32151115 57.11514892 22.32151115 56.96142578 20.17700195 C54.61491521 19.81952573 52.32231264 19.56833564 49.96142578 19.36450195 C48.66205078 19.21368164 47.36267578 19.06286133 46.02392578 18.9074707 C39.88111438 19.66181209 37.56675337 26.42181328 34.9420166 31.34823608 Z M-3.03857422 27.17700195 C-1.39525051 30.2041772 0.2526711 33.22851135 1.90771484 36.24926758 C2.67219217 37.64785723 3.4342471 39.04777185 4.19482422 40.44848633 C5.52833578 42.90262068 6.86938527 45.35252301 8.21142578 47.80200195 C8.6476123 48.60814941 9.08379883 49.41429688 9.53320312 50.24487305 C9.94779785 50.99849121 10.36239258 51.75210938 10.78955078 52.52856445 C11.15983398 53.20741699 11.53011719 53.88626953 11.91162109 54.58569336 C12.88246103 56.34598925 12.88246103 56.34598925 14.96142578 57.17700195 C18.09856204 52.93225099 21.30631715 48.53318973 21.96142578 43.17700195 C20.47819601 37.17320286 16.57623364 32.08600028 12.96142578 27.17700195 C7.68142578 27.17700195 2.40142578 27.17700195 -3.03857422 27.17700195 Z M35.96142578 69.17700195 C30.59118556 75.97335815 30.59118556 75.97335815 28.96142578 84.17700195 C30.3756226 87.455361 30.3756226 87.455361 32.96142578 90.17700195 C35.85736929 90.6391206 37.86639602 90.76174895 40.71142578 90.55200195 C41.7575 90.51139648 41.7575 90.51139648 42.82470703 90.4699707 C44.53828283 90.39954978 46.2502588 90.29193108 47.96142578 90.17700195 C46.26177518 85.44226098 43.82483551 81.21533084 41.33642578 76.86450195 C40.91619141 76.12393555 40.49595703 75.38336914 40.06298828 74.62036133 C39.03194083 72.80431184 37.99706532 70.99043663 36.96142578 69.17700195 C36.63142578 69.17700195 36.30142578 69.17700195 35.96142578 69.17700195 Z " fill="#00FF76" transform="translate(38.03857421875,6.822998046875)"/>
</svg>
